<?xml version="1.0" standalone="yes"?>
<svg xmlns="http://www.w3.org/2000/svg" width="282" height="158">
<path style="fill:#fdfcfb; stroke:none;" d="M0 0L0 158L282 158L282 0L0 0z"/>
<path style="fill:#ebd049; stroke:none;" d="M134 5L135 6L134 5z"/>
<path style="fill:#a8a1a6; stroke:none;" d="M135 5L135 6L144 6L135 5z"/>
<path style="fill:#ebd049; stroke:none;" d="M144 5L145 6L144 5M131 6L132 7L131 6z"/>
<path style="fill:#a8a1a6; stroke:none;" d="M132 6L133 7L132 6z"/>
<path style="fill:#675963; stroke:none;" d="M133 6.64893C118.397 11.0535 112.734 30.3329 99 35.3966C77.7245 43.2408 49.1286 28.4518 28 37.0093C19.1479 40.5945 18.0032 48.6119 18 57L18 106C18 113.661 16.9263 122.033 23.108 127.775C29.3983 133.619 39.1145 132 47 132C66.3324 132 85.6679 131.899 105 132.001C120.589 132.083 124.751 152.953 139 153.678C150.874 154.282 157.148 135.401 168 132.434C193.629 125.425 224.578 139.17 250 131.196C256.486 129.162 260.114 123.527 260.826 117C262.71 99.7347 261 81.3716 261 64C261 56.8078 262.383 48.0678 257.581 42.0432C251.631 34.5778 242.502 36 234 36C217.281 36 198.507 38.4194 182 35.8519C172.989 34.4503 164.311 21.0635 158 15.0394C151.074 8.42848 142.878 3.66933 133 6.64893z"/>
<path style="fill:#a8a1a6; stroke:none;" d="M146 6L147 7L146 6z"/>
<path style="fill:#ebd049; stroke:none;" d="M147 6L148 7L147 6z"/>
<path style="fill:#a8a1a6; stroke:none;" d="M129.667 7.33333L130.333 7.66667L129.667 7.33333M148.667 7.33333L149.333 7.66667L148.667 7.33333z"/>
<path style="fill:#ebd049; stroke:none;" d="M127 8L128 9L127 8z"/>
<path style="fill:#a8a1a6; stroke:none;" d="M128 8L129 9L128 8M150 8L151 9L150 8M126.667 9.33333L127.333 9.66667L126.667 9.33333M151 9L154 11L151 9M125 10L126 11L125 10M131 12L131 13C137.132 10.765 141.868 10.765 148 13C143.401 8.69069 136.38 9.41101 131 12M124 11L125 12L124 11z"/>
<path style="fill:#fdfcfb; stroke:none;" d="M33 56L33 53C53.1046 53 81.0298 59.4127 94 41L48 41C42.0671 41 33.4657 39.4572 28.108 42.4568C22.0167 45.8671 23 54.0912 23 60L23 105C23 110.857 21.7348 119.128 26.3032 123.697C31.6869 129.08 43.0957 127 50 127L94 127C100.038 127 108.291 125.561 114 127.742C122.696 131.064 130.165 149.126 140 148.208C150.487 147.228 155.787 130.227 166 127.434C172.041 125.781 179.767 127 186 127L228 127C234.835 127 246.087 129.064 251.775 124.436C257.057 120.139 256 112.023 256 106L256 61C256 55.0167 257.065 45.9259 250.891 42.4568C245.544 39.452 236.925 41 231 41L185 41C197.97 59.4127 225.895 53 246 53L246 56L209 56C202.689 56 195.537 56.9616 190 53.2971C178.487 45.6778 168.753 32.7494 159 23C153.186 17.1887 147.815 11.0012 139 11.0301C130.582 11.0577 125.519 17.4811 120 23C110.32 32.6795 100.531 45.8639 89 53.2724C83.4686 56.8263 76.2589 56 70 56L33 56z"/>
<path style="fill:#ebd049; stroke:none;" d="M144 11L145 12L144 11z"/>
<path style="fill:#a8a1a6; stroke:none;" d="M154 11L155 12L154 11M123 12L124 13L123 12M155 12L156 13L155 12M122 13L123 14L122 13M129 13L130 14L129 13z"/>
<path style="fill:#ebd049; stroke:none;" d="M148 13L149 14L148 13z"/>
<path style="fill:#a8a1a6; stroke:none;" d="M149 13L150 14L149 13M156 13L157 14L156 13M121 14L122 15L121 14M128 14L129 15L128 14M150 14L151 15L150 14M157 14L158 15L157 14M120 15L121 16L120 15M127 15L128 16L127 15M151 15L152 16L151 15M158 15L159 16L158 15M119 16L120 17L119 16M126 16L127 17L126 16M152 16L153 17L152 16M159 16L160 17L159 16M118 17L119 18L118 17M125 17L126 18L125 17M153 17L154 18L153 17M160 17L161 18L160 17M117 18L118 19L117 18M124 18L125 19L124 18M154 18L155 19L154 18M161 18L162 19L161 18M116 19L117 20L116 19M123 19L124 20L123 19M155 19L156 20L155 19M162 19L163 20L162 19M115 20L116 21L115 20M122 20L123 21L122 20M103 56C116.012 55.6855 131.889 36.0954 139 26L140 26C146.082 34.6345 164.494 58.1228 176 55C169.47 45.73 160.011 38.0103 152 30C148.95 26.9501 145.328 21.8809 141 20.662C136.517 19.3995 132.769 24.2509 130 27.0008C122.041 34.9051 106.078 45.035 103 56M156 20L157 21L156 20M163 20L164 21L163 20M114 21L115 22L114 21M121 21L122 22L121 21z"/>
<path style="fill:#675963; stroke:none;" d="M104 54C114.811 56.6036 133.225 33.199 139 25L140 25C146.575 34.3334 162.218 53.6879 174 55L150 29L139 21.466L128 30L104 54z"/>
<path style="fill:#ebd049; stroke:none;" d="M143 21L144 22L143 21z"/>
<path style="fill:#a8a1a6; stroke:none;" d="M157 21L158 22L157 21M164 21L165 22L164 21M113 22L114 23L113 22M120 22L121 23L120 22z"/>
<path style="fill:#ebd049; stroke:none;" d="M144 22L145 23L144 22z"/>
<path style="fill:#a8a1a6; stroke:none;" d="M158 22L159 23L158 22M165 22L166 23L165 22z"/>
<path style="fill:#ebd049; stroke:none;" d="M118 145L118 144C110.566 141.802 101.722 143 94 143L47 143C37.8081 143 27.4866 144.306 19.0008 140.001C12.3114 136.607 7.70486 129.453 7.09336 122C5.28645 99.9772 7 77.1026 7 55C7 44.5219 7.98852 34.1998 18.0008 28.2245C25.6973 23.6313 35.4263 25 44 25C62.5534 25 87.2366 29.2506 105 24C98.5639 21.2993 88.951 23 82 23L36 23C25.4896 23 15.4141 23.2955 8.8534 33.0039C-0.0668497 46.204 5 72.6468 5 88C5 102.997 0.134192 127.32 12.1852 138.671C20.7789 146.766 33.1777 145 44 145L118 145z"/>
<path style="fill:#a8a1a6; stroke:none;" d="M112 23L113 24L112 23M119 23L120 24L119 23z"/>
<path style="fill:#ebd049; stroke:none;" d="M145 23L146 24L145 23z"/>
<path style="fill:#a8a1a6; stroke:none;" d="M159 23L160 24L159 23M166 23L167 24L166 23z"/>
<path style="fill:#ebd049; stroke:none;" d="M174 23L174 24C191.763 29.2506 216.447 25 235 25C243.574 25 253.303 23.6313 260.999 28.2245C271.011 34.1998 272 44.5219 272 55C272 77.1026 273.714 99.9772 271.907 122C271.295 129.453 266.689 136.607 259.999 140.001C251.513 144.306 241.192 143 232 143L185 143C177.278 143 168.434 141.802 161 144C167.919 146.903 178.52 145 186 145L239 145C248.399 145 258.184 145.939 265.907 139.471C274.495 132.277 274 122.141 274 112L274 53C274 43.6823 273.712 34.88 265.96 28.3796C257.647 21.4089 247.107 23 237 23L174 23z"/>
<path style="fill:#a8a1a6; stroke:none;" d="M111 24L112 25L111 24M118 24L119 25L118 24M160 24L161 25L160 24M167 24L168 25L167 24M110 25L111 26L110 25M117 25L118 26L117 25z"/>
<path style="fill:#ebd049; stroke:none;" d="M147 25L148 26L147 25z"/>
<path style="fill:#a8a1a6; stroke:none;" d="M161 25L162 26L161 25M168 25L169 26L168 25M109 26L110 27L109 26M116 26L117 27L116 26z"/>
<path style="fill:#ebd049; stroke:none;" d="M148 26L149 27L148 26z"/>
<path style="fill:#a8a1a6; stroke:none;" d="M162 26L163 27L162 26M169 26L170 27L169 26M108 27L109 28L108 27M115 27L116 28L115 27z"/>
<path style="fill:#ebd049; stroke:none;" d="M149 27L150 28L149 27z"/>
<path style="fill:#a8a1a6; stroke:none;" d="M163 27L164 28L163 27M170 27L171 28L170 27M107 28L108 29L107 28M114 28L115 29L114 28z"/>
<path style="fill:#ebd049; stroke:none;" d="M150 28L151 29L150 28z"/>
<path style="fill:#a8a1a6; stroke:none;" d="M164 28L165 29L164 28M171 28L172 29L171 28M106 29L107 30L106 29M113 29L114 30L113 29z"/>
<path style="fill:#ebd049; stroke:none;" d="M127 29L128 30L127 29M151 29L152 30L151 29z"/>
<path style="fill:#a8a1a6; stroke:none;" d="M165 29L166 30L165 29M172 29L173 30L172 29M105 30L106 31L105 30M112 30L113 31L112 30z"/>
<path style="fill:#ebd049; stroke:none;" d="M126 30L127 31L126 30M152 30L153 31L152 30z"/>
<path style="fill:#a8a1a6; stroke:none;" d="M166 30L167 31L166 30M173 30L174 31L173 30M104 31L105 32L104 31M111 31L112 32L111 31z"/>
<path style="fill:#ebd049; stroke:none;" d="M125 31L126 32L125 31M153 31L154 32L153 31z"/>
<path style="fill:#a8a1a6; stroke:none;" d="M167 31L168 32L167 31M174 31L175 32L174 31M103 32L104 33L103 32M110 32L111 33L110 32z"/>
<path style="fill:#ebd049; stroke:none;" d="M124 32L125 33L124 32M154 32L155 33L154 32z"/>
<path style="fill:#a8a1a6; stroke:none;" d="M168 32L169 33L168 32M175 32L176 33L175 32M102 33L103 34L102 33M109 33L110 34L109 33z"/>
<path style="fill:#ebd049; stroke:none;" d="M123 33L124 34L123 33M155 33L156 34L155 33z"/>
<path style="fill:#a8a1a6; stroke:none;" d="M169 33L170 34L169 33M176 33L177 34L176 33M101 34L102 35L101 34M108 34L109 35L108 34z"/>
<path style="fill:#ebd049; stroke:none;" d="M122 34L123 35L122 34M156 34L157 35L156 34z"/>
<path style="fill:#a8a1a6; stroke:none;" d="M170 34L171 35L170 34M177 34L178 35L177 34z"/>
<path style="fill:#ebd049; stroke:none;" d="M31 35L32 36L31 35z"/>
<path style="fill:#a8a1a6; stroke:none;" d="M32 35L32 36L101 36L79 35L32 35M107 35L108 36L107 35z"/>
<path style="fill:#ebd049; stroke:none;" d="M121 35L122 36L121 35M157 35L158 36L157 35z"/>
<path style="fill:#a8a1a6; stroke:none;" d="M171 35L172 36L171 35M178 35L178 36L247 36L225 35L178 35z"/>
<path style="fill:#ebd049; stroke:none;" d="M247 35L248 36L247 35z"/>
<path style="fill:#a8a1a6; stroke:none;" d="M27.6667 36.3333L28.3333 36.6667L27.6667 36.3333M106 36L107 37L106 36z"/>
<path style="fill:#ebd049; stroke:none;" d="M120 36L121 37L120 36M158 36L159 37L158 36z"/>
<path style="fill:#a8a1a6; stroke:none;" d="M172 36L173 37L172 36M250.667 36.3333L251.333 36.6667L250.667 36.3333M25.6667 37.3333L26.3333 37.6667L25.6667 37.3333M105 37L106 38L105 37z"/>
<path style="fill:#ebd049; stroke:none;" d="M119 37L120 38L119 37M159 37L160 38L159 37z"/>
<path style="fill:#a8a1a6; stroke:none;" d="M173 37L174 38L173 37M252.667 37.3333L253.333 37.6667L252.667 37.3333z"/>
<path style="fill:#ebd049; stroke:none;" d="M23 38L24 39L23 38z"/>
<path style="fill:#a8a1a6; stroke:none;" d="M24 38L25 39L24 38M104 38L105 39L104 38z"/>
<path style="fill:#ebd049; stroke:none;" d="M118 38L119 39L118 38M160 38L161 39L160 38z"/>
<path style="fill:#a8a1a6; stroke:none;" d="M174 38L175 39L174 38M254 38L258 42L254 38z"/>
<path style="fill:#ebd049; stroke:none;" d="M255 38L256 39L255 38z"/>
<path style="fill:#a8a1a6; stroke:none;" d="M22 39L20 43L24 39L22 39M103 39L104 40L103 39z"/>
<path style="fill:#ebd049; stroke:none;" d="M117 39L118 40L117 39M161 39L162 40L161 39z"/>
<path style="fill:#a8a1a6; stroke:none;" d="M175 39L176 40L175 39M30 40L30 41C50.4453 41 75.1087 37.2643 95 42L78 40L30 40M102 40L103 41L102 40z"/>
<path style="fill:#ebd049; stroke:none;" d="M116 40L117 41L116 40M162 40L163 41L162 40z"/>
<path style="fill:#a8a1a6; stroke:none;" d="M176 40L177 41L176 40M184 42C203.891 37.2643 228.555 41 249 41C236.355 35.6938 213.777 40 200 40C195.423 40 187.197 38.3417 184 42z"/>
<path style="fill:#ebd049; stroke:none;" d="M20 41L21 42L20 41z"/>
<path style="fill:#a8a1a6; stroke:none;" d="M28.6667 41.3333L29.3333 41.6667L28.6667 41.3333M101 41L102 42L101 41z"/>
<path style="fill:#ebd049; stroke:none;" d="M115 41L116 42L115 41M163 41L164 42L163 41z"/>
<path style="fill:#a8a1a6; stroke:none;" d="M177 41L178 42L177 41M249.667 41.3333L250.333 41.6667L249.667 41.3333z"/>
<path style="fill:#ebd049; stroke:none;" d="M27 42L28 43L27 42z"/>
<path style="fill:#a8a1a6; stroke:none;" d="M93 42L94 43L93 42M100 42L101 43L100 42z"/>
<path style="fill:#ebd049; stroke:none;" d="M164 42L165 43L164 42z"/>
<path style="fill:#a8a1a6; stroke:none;" d="M178 42L179 43L178 42M185 42L186 43L185 42M251 42L252 43L251 42M258 42L259 43L258 42M19 43L20 44L19 43M25 43L26 44L25 43M92 43L93 44L92 43M99 43L100 44L99 43z"/>
<path style="fill:#ebd049; stroke:none;" d="M165 43L166 44L165 43z"/>
<path style="fill:#a8a1a6; stroke:none;" d="M179 43L180 44L179 43M186 43L187 44L186 43M253 43L254 44L253 43M259.333 43.6667L259.667 44.3333L259.333 43.6667M24.3333 44.6667L24.6667 45.3333L24.3333 44.6667M91 44L92 45L91 44M98 44L99 45L98 44z"/>
<path style="fill:#ebd049; stroke:none;" d="M166 44L167 45L166 44z"/>
<path style="fill:#a8a1a6; stroke:none;" d="M180 44L181 45L180 44M187 44L188 45L187 44z"/>
<path style="fill:#ebd049; stroke:none;" d="M18 45L19 46L18 45z"/>
<path style="fill:#a8a1a6; stroke:none;" d="M90 45L91 46L90 45M97 45L98 46L97 45z"/>
<path style="fill:#ebd049; stroke:none;" d="M167 45L168 46L167 45z"/>
<path style="fill:#a8a1a6; stroke:none;" d="M181 45L182 46L181 45M188 45L189 46L188 45M254 45L255 46L254 45M18.3333 46.6667L18.6667 47.3333L18.3333 46.6667M23 46L23 49L24 49L23 46M89 46L90 47L89 46M96 46L97 47L96 46z"/>
<path style="fill:#ebd049; stroke:none;" d="M168 46L169 47L168 46z"/>
<path style="fill:#a8a1a6; stroke:none;" d="M182 46L183 47L182 46M189 46L190 47L189 46M255 46C257.864 68.6628 260.2 100.937 254 123L255 123C261.545 107.491 257 82.7435 257 66C257 59.6528 258.366 51.6186 255 46M260.333 46.6667L260.667 47.3333L260.333 46.6667M88 47L89 48L88 47M95 47L96 48L95 47z"/>
<path style="fill:#ebd049; stroke:none;" d="M169 47L170 48L169 47z"/>
<path style="fill:#a8a1a6; stroke:none;" d="M183 47L184 48L183 47M190 47L191 48L190 47M87 48L88 49L87 48M94 48L95 49L94 48z"/>
<path style="fill:#ebd049; stroke:none;" d="M170 48L171 49L170 48z"/>
<path style="fill:#a8a1a6; stroke:none;" d="M184 48L185 49L184 48M191 48L192 49L191 48M22 49C22 72.5184 18.706 98.8704 23 122L24 122L23 72L22 49M86 49L87 50L86 49M93 49L94 50L93 49z"/>
<path style="fill:#ebd049; stroke:none;" d="M171 49L172 50L171 49z"/>
<path style="fill:#a8a1a6; stroke:none;" d="M185 49L186 50L185 49M192 49L193 50L192 49z"/>
<path style="fill:#ebd049; stroke:none;" d="M255 49L256 50L255 49M17 50L17 117L18 117L18 71L17 50z"/>
<path style="fill:#a8a1a6; stroke:none;" d="M85 50L86 51L85 50M92 50L93 51L92 50z"/>
<path style="fill:#ebd049; stroke:none;" d="M172 50L173 51L172 50z"/>
<path style="fill:#a8a1a6; stroke:none;" d="M186 50L187 51L186 50M193 50L194 51L193 50M84 51L85 52L84 51M91 51L92 52L91 51z"/>
<path style="fill:#ebd049; stroke:none;" d="M173 51L174 52L173 51z"/>
<path style="fill:#a8a1a6; stroke:none;" d="M187 51L188 52L187 51M194 51L195 52L194 51z"/>
<path style="fill:#ebd049; stroke:none;" d="M81 52L82 53L81 52z"/>
<path style="fill:#a8a1a6; stroke:none;" d="M82.6667 52.3333L83.3333 52.6667L82.6667 52.3333M90 52L91 53L90 52z"/>
<path style="fill:#ebd049; stroke:none;" d="M174 52L175 53L174 52z"/>
<path style="fill:#a8a1a6; stroke:none;" d="M188 52L189 53L188 52M195 52L195 53L198 54L198 55L191 54L191 55C204.339 56.0527 217.595 56 231 56C235.904 56 243.041 57.5643 246 53L195 52z"/>
<path style="fill:#ebd049; stroke:none;" d="M197 52L198 53L197 52z"/>
<path style="fill:#a8a1a6; stroke:none;" d="M33 53L33 56L88 55L88 54L81 55L70 53L33 53M88.6667 53.3333L89.3333 53.6667L88.6667 53.3333z"/>
<path style="fill:#ebd049; stroke:none;" d="M175 53L176 54L175 53z"/>
<path style="fill:#a8a1a6; stroke:none;" d="M189.667 53.3333L190.333 53.6667L189.667 53.3333z"/>
<path style="fill:#ebd049; stroke:none;" d="M83 55L84 56L83 55M169 55L170 56L169 55M175 55L176 56L175 55M194.667 55.3333L195.333 55.6667L194.667 55.3333M245 55L246 56L245 55M37 66L38 67L37 66z"/>
<path style="fill:#a8a1a6; stroke:none;" d="M38.6667 66.3333L39.3333 66.6667L38.6667 66.3333M85.6667 66.3333L86.3333 66.6667L85.6667 66.3333z"/>
<path style="fill:#ebd049; stroke:none;" d="M87 66L88 67L87 66z"/>
<path style="fill:#a8a1a6; stroke:none;" d="M99 69L103 67L99 69z"/>
<path style="fill:#ebd049; stroke:none;" d="M103 66L104 67L103 66z"/>
<path style="fill:#a8a1a6; stroke:none;" d="M108 66L109 67L108 66z"/>
<path style="fill:#ebd049; stroke:none;" d="M109 66L110 67L109 66z"/>
<path style="fill:#a8a1a6; stroke:none;" d="M121 66L121 67L125 67L121 66z"/>
<path style="fill:#ebd049; stroke:none;" d="M125 66L126 67L125 66z"/>
<path style="fill:#a8a1a6; stroke:none;" d="M171 66L172 67L171 66z"/>
<path style="fill:#ebd049; stroke:none;" d="M172 66L173 67L172 66M193.667 66.3333L194.333 66.6667L193.667 66.3333M227 66L228 67L227 66z"/>
<path style="fill:#a8a1a6; stroke:none;" d="M232 68L235 67L232 68z"/>
<path style="fill:#ebd049; stroke:none;" d="M235 66L236 67L235 66z"/>
<path style="fill:#a8a1a6; stroke:none;" d="M36 67L37 68L36 67z"/>
<path style="fill:#675963; stroke:none;" d="M37 67L36 80L37 80L37 67z"/>
<path style="fill:#0c0c0c; stroke:none;" d="M38 67L35 93C39.4635 92.159 45.195 92.0141 48.5702 88.581C57.1643 79.8394 46.2979 69.5785 38 67z"/>
<path style="fill:#675963; stroke:none;" d="M39 67L39 68L46 71L39 67z"/>
<path style="fill:#a8a1a6; stroke:none;" d="M43 67L44 68L43 67z"/>
<path style="fill:#ebd049; stroke:none;" d="M58 67L59 68L58 67z"/>
<path style="fill:#a8a1a6; stroke:none;" d="M59 67L59 68L62 68L59 67z"/>
<path style="fill:#675963; stroke:none;" d="M57 71C62.1314 68.6201 64.8997 68.4791 70 71C66.2028 66.7006 60.5179 65.9821 57 71z"/>
<path style="fill:#a8a1a6; stroke:none;" d="M66 67L67 68L66 67M83 67L84 68L83 67z"/>
<path style="fill:#675963; stroke:none;" d="M84 67L84 68L90 68L84 67z"/>
<path style="fill:#a8a1a6; stroke:none;" d="M90 67L91 68L90 67z"/>
<path style="fill:#ebd049; stroke:none;" d="M91 67L92 68L91 67z"/>
<path style="fill:#675963; stroke:none;" d="M98 72L99 72C102.868 67.7066 106.587 67.712 112 69C107.1 65.2874 100.93 66.7771 98 72z"/>
<path style="fill:#a8a1a6; stroke:none;" d="M119 67L120 68L119 67z"/>
<path style="fill:#675963; stroke:none;" d="M120.667 67.3333L121.333 67.6667L120.667 67.3333z"/>
<path style="fill:#0c0c0c; stroke:none;" d="M113 80L103 77L104 72L112 69C95.4697 64.1139 91.8931 91.7163 108 93L102 88C103.275 81.8866 107.592 82.0083 113 81C113.62 88.099 121.033 99.2133 127 89C110.842 91.049 121.13 67.8149 126 75L130 70C120.736 64.8364 115.212 70.7733 113 80z"/>
<path style="fill:#675963; stroke:none;" d="M125 67L125 68L128 69L125 67z"/>
<path style="fill:#a8a1a6; stroke:none;" d="M127 67L128 68L127 67z"/>
<path style="fill:#ebd049; stroke:none;" d="M136 67L137 68L136 67z"/>
<path style="fill:#a8a1a6; stroke:none;" d="M134 72L135 72L140 68C136.751 67.3211 135.517 69.2855 134 72z"/>
<path style="fill:#675963; stroke:none;" d="M136 69L136 70L144 68L136 69z"/>
<path style="fill:#a8a1a6; stroke:none;" d="M144 67L145 68L144 67z"/>
<path style="fill:#ebd049; stroke:none;" d="M154 67L155 68L154 67z"/>
<path style="fill:#a8a1a6; stroke:none;" d="M155 67L155 68L159 69L159 68L155 67M169 67L162 74L162 75L169 67z"/>
<path style="fill:#675963; stroke:none;" d="M168 70L173 68L168 70z"/>
<path style="fill:#a8a1a6; stroke:none;" d="M173.333 67.6667L173.667 68.3333L173.333 67.6667z"/>
<path style="fill:#ebd049; stroke:none;" d="M176 67L177 68L176 67z"/>
<path style="fill:#a8a1a6; stroke:none;" d="M177 67L178 68L177 67z"/>
<path style="fill:#675963; stroke:none;" d="M178 67L180 71L181 71L178 67z"/>
<path style="fill:#a8a1a6; stroke:none;" d="M179 67L180 68L179 67M191 67L188 71L191 67z"/>
<path style="fill:#675963; stroke:none;" d="M188 72L195 68L188 72z"/>
<path style="fill:#a8a1a6; stroke:none;" d="M195 67L195 70L196 70L195 67M205 67L206 68L205 67z"/>
<path style="fill:#675963; stroke:none;" d="M206 67L207 68L206 67z"/>
<path style="fill:#a8a1a6; stroke:none;" d="M207 67L208 68L207 67M226 67L225 69L226 67z"/>
<path style="fill:#675963; stroke:none;" d="M227 67L225 70L228 68L228 72L229 72L227 67z"/>
<path style="fill:#a8a1a6; stroke:none;" d="M228 67L229 68L228 67z"/>
<path style="fill:#675963; stroke:none;" d="M232 68L232 69L238 68L232 68z"/>
<path style="fill:#a8a1a6; stroke:none;" d="M238 67L238 68L244 72L238 67M44 68L45 69L44 68z"/>
<path style="fill:#0c0c0c; stroke:none;" d="M62.0147 68.6165C52.9781 70.6987 48.9261 93.4594 60.0046 92.2616C72.891 90.8682 76.2404 65.3387 62.0147 68.6165z"/>
<path style="fill:#a8a1a6; stroke:none;" d="M68 68L69 69L68 68z"/>
<path style="fill:#675963; stroke:none;" d="M82 68L83 69L82 68z"/>
<path style="fill:#0c0c0c; stroke:none;" d="M82 93L83 93L84 89L103 98L87 82C95.5048 78.1774 96.8867 65.1193 85.1335 68.3218C78.3831 70.1611 80.5022 87.9327 82 93z"/>
<path style="fill:#675963; stroke:none;" d="M91 68L92 69L91 68z"/>
<path style="fill:#a8a1a6; stroke:none;" d="M92 68L93 69L92 68z"/>
<path style="fill:#ebd049; stroke:none;" d="M93 68L94 69L93 68z"/>
<path style="fill:#675963; stroke:none;" d="M118 68L119 69L118 68z"/>
<path style="fill:#a8a1a6; stroke:none;" d="M128.667 68.3333L129.333 68.6667L128.667 68.3333z"/>
<path style="fill:#0c0c0c; stroke:none;" d="M140.039 68.5918C130.31 71.0756 127.808 94.5198 139.004 92.1636C150.985 89.6422 153.9 65.0533 140.039 68.5918z"/>
<path style="fill:#675963; stroke:none;" d="M145 68L149 72L145 68z"/>
<path style="fill:#a8a1a6; stroke:none;" d="M146 68L147 69L146 68M152 68L153 69L152 68z"/>
<path style="fill:#675963; stroke:none;" d="M153 68L152 72L153 72L155 69L153 68z"/>
<path style="fill:#0c0c0c; stroke:none;" d="M153 91L157 77L159 77L161 83L163 83L167 79L167 92L168 92L173 68C164.937 69.9629 163.88 76.892 157 68C150.723 70.5231 151.305 85.2632 153 91z"/>
<path style="fill:#675963; stroke:none;" d="M157 68L158 69L157 68z"/>
<path style="fill:#ebd049; stroke:none;" d="M174 68L175 69L174 68z"/>
<path style="fill:#675963; stroke:none;" d="M172 74L173 74L177 69C173.625 68.502 172.807 71.0693 172 74z"/>
<path style="fill:#0c0c0c; stroke:none;" d="M175 91L180 76L183 83L189 79L189 92L190 92L195 68C187.016 70.2587 185.752 76.7266 179 68C172.723 70.5231 173.305 85.2632 175 91z"/>
<path style="fill:#a8a1a6; stroke:none;" d="M180 68L181 69L180 68M203 68L204 69L203 68z"/>
<path style="fill:#675963; stroke:none;" d="M204 68L203 70L204 68z"/>
<path style="fill:#0c0c0c; stroke:none;" d="M196 92L205 84L206 91C214.232 86.2072 209.919 75.1781 208 68C199.461 70.4701 196.17 84.0262 196 92z"/>
<path style="fill:#675963; stroke:none;" d="M208 68L208 71L209 71L208 68z"/>
<path style="fill:#0c0c0c; stroke:none;" d="M227 68L224 80L220 71C212.382 72.2705 212.297 85.7026 213 92L217 84L219 84C225.487 98.2614 230.531 75.0262 227 68M232 69L230 93C235.233 92.3352 242.912 92.0877 245.821 86.892C250.818 77.9653 241.406 66.3309 232 69z"/>
<path style="fill:#675963; stroke:none;" d="M239 68L240 69L239 68z"/>
<path style="fill:#a8a1a6; stroke:none;" d="M45 69L46 70L45 69M57 69L58 70L57 69M69 69L70 70L69 69M81 69L82 70L81 69z"/>
<path style="fill:#675963; stroke:none;" d="M93 69L95 75L96 75L93 69z"/>
<path style="fill:#a8a1a6; stroke:none;" d="M94 69L95 70L94 69z"/>
<path style="fill:#ebd049; stroke:none;" d="M112.333 69.6667L112.667 70.3333L112.333 69.6667z"/>
<path style="fill:#a8a1a6; stroke:none;" d="M117 69L118 70L117 69z"/>
<path style="fill:#675963; stroke:none;" d="M129 69L130 70L129 69z"/>
<path style="fill:#ebd049; stroke:none;" d="M130 69L131 70L130 69z"/>
<path style="fill:#a8a1a6; stroke:none;" d="M147 69L148 70L147 69z"/>
<path style="fill:#675963; stroke:none;" d="M158.333 69.6667L158.667 70.3333L158.333 69.6667z"/>
<path style="fill:#ebd049; stroke:none;" d="M202 69L203 70L202 69z"/>
<path style="fill:#a8a1a6; stroke:none;" d="M209 69L209 72L210 72L209 69z"/>
<path style="fill:#ebd049; stroke:none;" d="M217.667 69.3333L218.333 69.6667L217.667 69.3333M229 69L230 70L229 69z"/>
<path style="fill:#675963; stroke:none;" d="M240 69L241 70L240 69z"/>
<path style="fill:#ebd049; stroke:none;" d="M35 70L36 71L35 70z"/>
<path style="fill:#a8a1a6; stroke:none;" d="M46 70L47 71L46 70z"/>
<path style="fill:#ebd049; stroke:none;" d="M70 70L71 71L70 70z"/>
<path style="fill:#675963; stroke:none;" d="M81.3333 70.6667L81.6667 71.3333L81.3333 70.6667z"/>
<path style="fill:#a8a1a6; stroke:none;" d="M95 70L96 71L95 70M98 70L99 71L98 70z"/>
<path style="fill:#675963; stroke:none;" d="M111 70L110 72L111 70z"/>
<path style="fill:#a8a1a6; stroke:none;" d="M116 70L115 72L116 70M130 70L131 71L130 70M148 70L149 71L148 70M151 70L152 71L151 70z"/>
<path style="fill:#675963; stroke:none;" d="M195 70L196 71L195 70z"/>
<path style="fill:#a8a1a6; stroke:none;" d="M202 70L203 71L202 70M216 70L217 71L216 70z"/>
<path style="fill:#675963; stroke:none;" d="M217 70L217 71L220 71C220.098 75.0508 220.345 77.8649 224 80L224 79L217 70z"/>
<path style="fill:#a8a1a6; stroke:none;" d="M220 70L221 71L220 70M224 70L224 74L225 74L224 70M229 70L229 82L230 82L229 70z"/>
<path style="fill:#675963; stroke:none;" d="M241 70L242 71L241 70z"/>
<path style="fill:#a8a1a6; stroke:none;" d="M47 71L48 72L47 71M56 71L55 73L56 71M70 71L71 72L70 71M80 71L80 93L81 93L80 71M111 71L112 72L111 71z"/>
<path style="fill:#675963; stroke:none;" d="M116 71L117 72L116 71M130 71L129 73L130 71M135 71L136 72L135 71z"/>
<path style="fill:#ebd049; stroke:none;" d="M149 71L150 72L149 71z"/>
<path style="fill:#a8a1a6; stroke:none;" d="M159 71L160 72L159 71z"/>
<path style="fill:#675963; stroke:none;" d="M166 71L167 72L166 71z"/>
<path style="fill:#a8a1a6; stroke:none;" d="M181 71L182 72L181 71M195 71L196 72L195 71M201 71L198 78L201 71M215 71L216 72L215 71M221 71L221 74L222 74L221 71z"/>
<path style="fill:#675963; stroke:none;" d="M232 71L232 75L233 75L232 71M242 71L243 72L242 71z"/>
<path style="fill:#ebd049; stroke:none;" d="M48 72L49 73L48 72z"/>
<path style="fill:#675963; stroke:none;" d="M56 72L57 73L56 72z"/>
<path style="fill:#a8a1a6; stroke:none;" d="M71 72L72 73L71 72z"/>
<path style="fill:#675963; stroke:none;" d="M85 72L86 76L89 73L85 72z"/>
<path style="fill:#a8a1a6; stroke:none;" d="M86 72L86 75L87 75L88 72L86 72M98.3333 72.6667L98.6667 73.3333L98.3333 72.6667z"/>
<path style="fill:#675963; stroke:none;" d="M104.667 72.3333L105.333 72.6667L104.667 72.3333z"/>
<path style="fill:#a8a1a6; stroke:none;" d="M106.667 72.3333L107.333 72.6667L106.667 72.3333z"/>
<path style="fill:#ebd049; stroke:none;" d="M108 72L109 73L108 72M114 72L115 73L114 72z"/>
<path style="fill:#675963; stroke:none;" d="M115 72L116 73L115 72M121 72L119 75L121 72z"/>
<path style="fill:#a8a1a6; stroke:none;" d="M122 72L122 73L125 73L122 72z"/>
<path style="fill:#675963; stroke:none;" d="M125.333 72.6667L125.667 73.3333L125.333 72.6667z"/>
<path style="fill:#a8a1a6; stroke:none;" d="M130 72L131 73L130 72z"/>
<path style="fill:#ebd049; stroke:none;" d="M133 72L134 73L133 72z"/>
<path style="fill:#675963; stroke:none;" d="M134 72L135 73L134 72z"/>
<path style="fill:#a8a1a6; stroke:none;" d="M149 72L150 73L149 72M152 72L151 85L152 85L152 72z"/>
<path style="fill:#675963; stroke:none;" d="M160 72L161 73L160 72z"/>
<path style="fill:#ebd049; stroke:none;" d="M173 72L174 73L173 72z"/>
<path style="fill:#a8a1a6; stroke:none;" d="M174 72L175 73L174 72z"/>
<path style="fill:#675963; stroke:none;" d="M182 72L183 73L182 72z"/>
<path style="fill:#a8a1a6; stroke:none;" d="M187 72L185 75L187 72z"/>
<path style="fill:#675963; stroke:none;" d="M194.333 72.6667L194.667 73.3333L194.333 72.6667z"/>
<path style="fill:#ebd049; stroke:none;" d="M195 72L196 73L195 72z"/>
<path style="fill:#675963; stroke:none;" d="M209 72L210 73L209 72z"/>
<path style="fill:#a8a1a6; stroke:none;" d="M214.333 72.6667L214.667 73.3333L214.333 72.6667z"/>
<path style="fill:#675963; stroke:none;" d="M243 72L244 73L243 72M41 73L42 74L41 73M48 73L50 75L48 73z"/>
<path style="fill:#a8a1a6; stroke:none;" d="M49 73L50 74L49 73z"/>
<path style="fill:#675963; stroke:none;" d="M55 73L56 74L55 73M71.3333 73.6667L71.6667 74.3333L71.3333 73.6667z"/>
<path style="fill:#ebd049; stroke:none;" d="M87 73L88 74L87 73z"/>
<path style="fill:#675963; stroke:none;" d="M99 73L99 76L100 76L99 73z"/>
<path style="fill:#a8a1a6; stroke:none;" d="M114 73L115 74L114 73z"/>
<path style="fill:#ebd049; stroke:none;" d="M121 73L122 74L121 73z"/>
<path style="fill:#a8a1a6; stroke:none;" d="M129 73L130 74L129 73z"/>
<path style="fill:#675963; stroke:none;" d="M133 73L134 74L133 73M149.333 73.6667L149.667 74.3333L149.333 73.6667z"/>
<path style="fill:#ebd049; stroke:none;" d="M150 73L151 74L150 73z"/>
<path style="fill:#675963; stroke:none;" d="M161 73L162 74L161 73M165 73L166 74L165 73M183 73L185 75L183 73z"/>
<path style="fill:#ebd049; stroke:none;" d="M184 73L185 74L184 73z"/>
<path style="fill:#675963; stroke:none;" d="M187 73L188 74L187 73M201 73L202 74L201 73z"/>
<path style="fill:#a8a1a6; stroke:none;" d="M210.333 73.6667L210.667 74.3333L210.333 73.6667z"/>
<path style="fill:#675963; stroke:none;" d="M228 73L228 78L229 78L228 73M237 73L236 79L237 79L237 73M244 73L245 74L244 73z"/>
<path style="fill:#a8a1a6; stroke:none;" d="M41.6667 74.3333L42.3333 74.6667L41.6667 74.3333z"/>
<path style="fill:#675963; stroke:none;" d="M43 74L44 75L43 74z"/>
<path style="fill:#a8a1a6; stroke:none;" d="M50 74L52 77L50 74M54 74L55 75L54 74z"/>
<path style="fill:#675963; stroke:none;" d="M62 74L63 75L62 74z"/>
<path style="fill:#a8a1a6; stroke:none;" d="M63 74L61 77L63 75L64 75L66 77L63 74z"/>
<path style="fill:#675963; stroke:none;" d="M64 74L65 75L64 74z"/>
<path style="fill:#a8a1a6; stroke:none;" d="M72 74L72 77L73 77L72 74z"/>
<path style="fill:#ebd049; stroke:none;" d="M98 74L99 75L98 74M113 74L114 75L113 74z"/>
<path style="fill:#675963; stroke:none;" d="M114 74L115 75L114 74z"/>
<path style="fill:#a8a1a6; stroke:none;" d="M120 74L121 75L120 74M125 74L126 75L125 74z"/>
<path style="fill:#675963; stroke:none;" d="M127 74L128 75L127 74z"/>
<path style="fill:#a8a1a6; stroke:none;" d="M128 74L129 75L128 74M132 74L133 75L132 74z"/>
<path style="fill:#675963; stroke:none;" d="M140 74L141 75L140 74z"/>
<path style="fill:#a8a1a6; stroke:none;" d="M141 74L140 76L141 74z"/>
<path style="fill:#675963; stroke:none;" d="M142 74L145 77L142 74z"/>
<path style="fill:#a8a1a6; stroke:none;" d="M150.333 74.6667L150.667 75.3333L150.333 74.6667z"/>
<path style="fill:#675963; stroke:none;" d="M164 74L165 75L164 74z"/>
<path style="fill:#a8a1a6; stroke:none;" d="M172 74L172 80L173 80L172 74z"/>
<path style="fill:#675963; stroke:none;" d="M186 74L187 75L186 74z"/>
<path style="fill:#a8a1a6; stroke:none;" d="M194 74L194 81L195 81L194 74z"/>
<path style="fill:#675963; stroke:none;" d="M214 74L214 77L215 77L214 74M224.333 74.6667L224.667 75.3333L224.333 74.6667z"/>
<path style="fill:#a8a1a6; stroke:none;" d="M237.667 74.3333L238.333 74.6667L237.667 74.3333z"/>
<path style="fill:#675963; stroke:none;" d="M239 74L240 75L239 74M245 74L246 75L245 74z"/>
<path style="fill:#ebd049; stroke:none;" d="M41 75L42 76L41 75z"/>
<path style="fill:#fdfcfb; stroke:none;" d="M42 75C37.0904 91.1983 53.5353 81.0535 42 75z"/>
<path style="fill:#a8a1a6; stroke:none;" d="M44 75L46 77L44 75z"/>
<path style="fill:#675963; stroke:none;" d="M45 75L46 76L45 75M54 75L55 76L54 75z"/>
<path style="fill:#fdfcfb; stroke:none;" d="M63 75C60.4908 78.8023 59.7345 81.5835 61 86C64.7789 82.7467 66.6554 79.0452 63 75z"/>
<path style="fill:#675963; stroke:none;" d="M65 75L66 76L65 75z"/>
<path style="fill:#a8a1a6; stroke:none;" d="M95 75L96 76L95 75M98.3333 75.6667L98.6667 76.3333L98.3333 75.6667M113 75L114 76L113 75M119 75L120 76L119 75M126.667 75.3333L127.333 75.6667L126.667 75.3333z"/>
<path style="fill:#675963; stroke:none;" d="M132 75L133 76L132 75z"/>
<path style="fill:#fdfcfb; stroke:none;" d="M141 75L139 86C142.783 82.7455 144.89 78.9383 141 75z"/>
<path style="fill:#ebd049; stroke:none;" d="M142 75L143 76L142 75z"/>
<path style="fill:#675963; stroke:none;" d="M171 75L171 83L172 83L171 75M210.333 75.6667L210.667 76.3333L210.333 75.6667z"/>
<path style="fill:#ebd049; stroke:none;" d="M213 75L214 76L213 75M221 75L222 76L221 75z"/>
<path style="fill:#fdfcfb; stroke:none;" d="M237 75L237 86C244.374 84.7955 243.074 77.3164 237 75z"/>
<path style="fill:#ebd049; stroke:none;" d="M239 75L240 76L239 75z"/>
<path style="fill:#a8a1a6; stroke:none;" d="M240 75L241 76L240 75M246 75L247 76L246 75z"/>
<path style="fill:#675963; stroke:none;" d="M40 76L40 80L41 80L40 76M50 76L51 77L50 76z"/>
<path style="fill:#a8a1a6; stroke:none;" d="M53 76L52 79L53 76z"/>
<path style="fill:#675963; stroke:none;" d="M66.3333 76.6667L66.6667 77.3333L66.3333 76.6667M94 76L93 78L94 76M103 76L104 77L103 76M113.333 76.6667L113.667 77.3333L113.333 76.6667z"/>
<path style="fill:#ebd049; stroke:none;" d="M119 76L120 77L119 76z"/>
<path style="fill:#675963; stroke:none;" d="M139 76L138 78L139 76z"/>
<path style="fill:#a8a1a6; stroke:none;" d="M143 76L144 77L143 76z"/>
<path style="fill:#675963; stroke:none;" d="M150 76L150 80L151 80L150 76z"/>
<path style="fill:#a8a1a6; stroke:none;" d="M174 76L174 79L175 79L174 76z"/>
<path style="fill:#675963; stroke:none;" d="M180 76L179 78L180 76M193 76L193 84L194 84L193 76M200 76L201 77L200 76z"/>
<path style="fill:#ebd049; stroke:none;" d="M211 76L212 77L211 76z"/>
<path style="fill:#a8a1a6; stroke:none;" d="M213.333 76.6667L213.667 77.3333L213.333 76.6667M221 76L222 77L221 76M223 76L222 79L223 76z"/>
<path style="fill:#675963; stroke:none;" d="M241 76L243 78L241 76M246 76L247 77L246 76z"/>
<path style="fill:#ebd049; stroke:none;" d="M247 76L248 77L247 76M35 77L36 78L35 77z"/>
<path style="fill:#675963; stroke:none;" d="M46 77L47 78L46 77M51.3333 77.6667L51.6667 78.3333L51.3333 77.6667z"/>
<path style="fill:#ebd049; stroke:none;" d="M52 77L53 78L52 77z"/>
<path style="fill:#675963; stroke:none;" d="M60 77L61 78L60 77z"/>
<path style="fill:#ebd049; stroke:none;" d="M65 77L66 78L65 77z"/>
<path style="fill:#675963; stroke:none;" d="M72.3333 77.6667L72.6667 78.3333L72.3333 77.6667z"/>
<path style="fill:#a8a1a6; stroke:none;" d="M94 77L95 78L94 77z"/>
<path style="fill:#675963; stroke:none;" d="M98.3333 77.6667L98.6667 78.3333L98.3333 77.6667z"/>
<path style="fill:#a8a1a6; stroke:none;" d="M104 77L104 78L110 78L104 77z"/>
<path style="fill:#ebd049; stroke:none;" d="M110 77L111 78L110 77M112 77L113 78L112 77z"/>
<path style="fill:#675963; stroke:none;" d="M118 77L119 78L118 77z"/>
<path style="fill:#a8a1a6; stroke:none;" d="M131 77L132 78L131 77z"/>
<path style="fill:#ebd049; stroke:none;" d="M139 77L140 78L139 77z"/>
<path style="fill:#a8a1a6; stroke:none;" d="M144 77L144 80L145 80L144 77z"/>
<path style="fill:#675963; stroke:none;" d="M157 77L158 78L157 77z"/>
<path style="fill:#a8a1a6; stroke:none;" d="M158 77L157 82L158 82L158 77M180 77L181 78L180 77z"/>
<path style="fill:#675963; stroke:none;" d="M199 77L200 78L199 77M204 77L206 79L204 77z"/>
<path style="fill:#a8a1a6; stroke:none;" d="M211 77L211 84L212 84L211 77M241 77L242 78L241 77M247 77L248 78L247 77M35 78L35 82L36 82L35 78M46 78L47 79L46 78z"/>
<path style="fill:#675963; stroke:none;" d="M53 78L54 79L53 78z"/>
<path style="fill:#a8a1a6; stroke:none;" d="M60 78L61 79L60 78M66 78L64 83L65 83L66 78z"/>
<path style="fill:#675963; stroke:none;" d="M81.3333 78.6667L81.6667 79.3333L81.3333 78.6667z"/>
<path style="fill:#a8a1a6; stroke:none;" d="M93 78L94 79L93 78M97 78L97 82L98 82L97 78z"/>
<path style="fill:#675963; stroke:none;" d="M107.667 78.3333L108.333 78.6667L107.667 78.3333M110 78L111 79L110 78z"/>
<path style="fill:#a8a1a6; stroke:none;" d="M111.667 78.3333L112.333 78.6667L111.667 78.3333M118 78L119 79L118 78z"/>
<path style="fill:#675963; stroke:none;" d="M131 78L132 79L131 78z"/>
<path style="fill:#a8a1a6; stroke:none;" d="M138 78L139 79L138 78z"/>
<path style="fill:#675963; stroke:none;" d="M152 78L152 81L153 81L152 78z"/>
<path style="fill:#ebd049; stroke:none;" d="M158 78L159 79L158 78z"/>
<path style="fill:#675963; stroke:none;" d="M159 78L160 79L159 78z"/>
<path style="fill:#a8a1a6; stroke:none;" d="M179 78L179 83L180 83L179 78z"/>
<path style="fill:#675963; stroke:none;" d="M181 78L182 79L181 78z"/>
<path style="fill:#ebd049; stroke:none;" d="M197 78L198 79L197 78z"/>
<path style="fill:#675963; stroke:none;" d="M198 78L199 79L198 78z"/>
<path style="fill:#a8a1a6; stroke:none;" d="M204 78L206 80L204 78z"/>
<path style="fill:#675963; stroke:none;" d="M213 78L213 82L214 82L213 78z"/>
<path style="fill:#ebd049; stroke:none;" d="M231 78L232 79L231 78z"/>
<path style="fill:#a8a1a6; stroke:none;" d="M242.333 78.6667L242.667 79.3333L242.333 78.6667z"/>
<path style="fill:#675963; stroke:none;" d="M247 78L247 84L248 84L247 78z"/>
<path style="fill:#ebd049; stroke:none;" d="M248 78L249 79L248 78z"/>
<path style="fill:#675963; stroke:none;" d="M52 79L51 85L52 85L52 82L53 82L53 85L54 85L52 79M59 79L59 85L60 85L59 79z"/>
<path style="fill:#a8a1a6; stroke:none;" d="M72 79L70 85L71 85L72 79M92 79L93 80L92 79z"/>
<path style="fill:#675963; stroke:none;" d="M112 79L113 80L112 79z"/>
<path style="fill:#ebd049; stroke:none;" d="M118 79L119 80L118 79z"/>
<path style="fill:#a8a1a6; stroke:none;" d="M130 79L130 82L131 82L130 79z"/>
<path style="fill:#675963; stroke:none;" d="M137 79L137 84L138 84L137 79M156 79L156 84L157 84L156 79z"/>
<path style="fill:#a8a1a6; stroke:none;" d="M159 79L160 80L159 79z"/>
<path style="fill:#675963; stroke:none;" d="M166 79L167 80L166 79M174.333 79.6667L174.667 80.3333L174.333 79.6667z"/>
<path style="fill:#a8a1a6; stroke:none;" d="M181 79L182 80L181 79M188 79L187 81L188 79M197 79L197 82L198 82L197 79z"/>
<path style="fill:#675963; stroke:none;" d="M203 79L205 81L203 79z"/>
<path style="fill:#ebd049; stroke:none;" d="M204 79L205 80L204 79M212 79L213 80L212 79z"/>
<path style="fill:#a8a1a6; stroke:none;" d="M231.333 79.6667L231.667 80.3333L231.333 79.6667M236 79L236 83L237 83L236 79z"/>
<path style="fill:#675963; stroke:none;" d="M243 79L241 87C243.529 84.5245 244.36 82.3707 243 79z"/>
<path style="fill:#a8a1a6; stroke:none;" d="M248 79L248 82L249 82L248 79M40 80L40 83L41 83L40 80z"/>
<path style="fill:#675963; stroke:none;" d="M47.3333 80.6667L47.6667 81.3333L47.3333 80.6667M66 80L67 81L66 80M90 80L91 81L90 80z"/>
<path style="fill:#a8a1a6; stroke:none;" d="M91 80L92 81L91 80z"/>
<path style="fill:#ebd049; stroke:none;" d="M143 80L144 81L143 80z"/>
<path style="fill:#675963; stroke:none;" d="M144 80L145 81L144 80M164 80L163 82L164 80z"/>
<path style="fill:#a8a1a6; stroke:none;" d="M165 80L166 84L167 84L165 80z"/>
<path style="fill:#ebd049; stroke:none;" d="M172 80L173 81L172 80z"/>
<path style="fill:#675963; stroke:none;" d="M178 80L178 85L179 85L178 80M182.333 80.6667L182.667 81.3333L182.333 80.6667z"/>
<path style="fill:#fdfcfb; stroke:none;" d="M188 80L189 81L188 80z"/>
<path style="fill:#675963; stroke:none;" d="M228 80L228 84L229 84L228 80z"/>
<path style="fill:#ebd049; stroke:none;" d="M242 80L243 81L242 80z"/>
<path style="fill:#675963; stroke:none;" d="M71 81L72 82L71 81M88 81L91 87L88 81z"/>
<path style="fill:#a8a1a6; stroke:none;" d="M89 81L90 82L89 81z"/>
<path style="fill:#675963; stroke:none;" d="M110 81L111 82L110 81z"/>
<path style="fill:#a8a1a6; stroke:none;" d="M111 81L112 86L113 86L111 81z"/>
<path style="fill:#675963; stroke:none;" d="M112 81L113 82L112 81z"/>
<path style="fill:#a8a1a6; stroke:none;" d="M138 81L138 86L139 86L138 81M143 81L144 82L143 81z"/>
<path style="fill:#675963; stroke:none;" d="M149.333 81.6667L149.667 82.3333L149.333 81.6667M160 81L161 82L160 81z"/>
<path style="fill:#a8a1a6; stroke:none;" d="M164 81L165 82L164 81z"/>
<path style="fill:#675963; stroke:none;" d="M185 81L183 83L183 84L185 81z"/>
<path style="fill:#a8a1a6; stroke:none;" d="M186 81L187 82L186 81z"/>
<path style="fill:#ebd049; stroke:none;" d="M188 81L189 82L188 81M194 81L195 82L194 81z"/>
<path style="fill:#675963; stroke:none;" d="M231 81L231 84L232 84L231 81M235 81L235 86L236 86L235 81M35 82L35 86L36 86L35 82z"/>
<path style="fill:#a8a1a6; stroke:none;" d="M47 82L48 83L47 82M52 82L50 88C52.4557 86.2344 53.1181 84.8811 52 82z"/>
<path style="fill:#675963; stroke:none;" d="M65 82L66 83L65 82M80 82L80 85L81 85L80 82z"/>
<path style="fill:#a8a1a6; stroke:none;" d="M88.3333 82.6667L88.6667 83.3333L88.3333 82.6667z"/>
<path style="fill:#ebd049; stroke:none;" d="M97.3333 82.6667L97.6667 83.3333L97.3333 82.6667z"/>
<path style="fill:#675963; stroke:none;" d="M98 82L99 83L98 82M103 82L103 83L109 83L103 82z"/>
<path style="fill:#a8a1a6; stroke:none;" d="M109.667 82.3333L110.333 82.6667L109.667 82.3333z"/>
<path style="fill:#675963; stroke:none;" d="M131 82L131 88L132 88L131 82z"/>
<path style="fill:#ebd049; stroke:none;" d="M142 82L143 83L142 82z"/>
<path style="fill:#675963; stroke:none;" d="M143 82L144 83L143 82z"/>
<path style="fill:#a8a1a6; stroke:none;" d="M160 82L161 83L160 82M163 82L161 84L161 85L163 82z"/>
<path style="fill:#ebd049; stroke:none;" d="M173 82L174 83L173 82z"/>
<path style="fill:#a8a1a6; stroke:none;" d="M182 82L183 83L182 82M188.333 82.6667L188.667 83.3333L188.333 82.6667z"/>
<path style="fill:#675963; stroke:none;" d="M197 82L198 83L197 82z"/>
<path style="fill:#ebd049; stroke:none;" d="M248 82L249 83L248 82z"/>
<path style="fill:#675963; stroke:none;" d="M47 83L45 87L47 83M64 83L62 87L64 83M70 83L71 84L70 83z"/>
<path style="fill:#a8a1a6; stroke:none;" d="M103 83L104 84L103 83z"/>
<path style="fill:#ebd049; stroke:none;" d="M104 83L105 84L104 83z"/>
<path style="fill:#a8a1a6; stroke:none;" d="M142 83L140 86L142 83M149 83L150 84L149 83z"/>
<path style="fill:#675963; stroke:none;" d="M161.667 83.3333L162.333 83.6667L161.667 83.3333z"/>
<path style="fill:#a8a1a6; stroke:none;" d="M171 83L171 86L172 86L171 83M173 83L173 86L174 86L173 83M185 83L186 84L185 83M196 83L197 84L196 83z"/>
<path style="fill:#675963; stroke:none;" d="M212 83L212 89L213 89L212 83z"/>
<path style="fill:#ebd049; stroke:none;" d="M236.333 83.6667L236.667 84.3333L236.333 83.6667M242 83L243 84L242 83M40 84L42 86L40 84z"/>
<path style="fill:#a8a1a6; stroke:none;" d="M46 84L47 85L46 84M63 84L64 85L63 84z"/>
<path style="fill:#ebd049; stroke:none;" d="M89 84L90 85L89 84z"/>
<path style="fill:#a8a1a6; stroke:none;" d="M97.3333 84.6667L97.6667 85.3333L97.3333 84.6667z"/>
<path style="fill:#675963; stroke:none;" d="M102 84L103 85L102 84z"/>
<path style="fill:#a8a1a6; stroke:none;" d="M118.333 84.6667L118.667 85.3333L118.333 84.6667z"/>
<path style="fill:#675963; stroke:none;" d="M142 84L143 85L142 84M148 84L147 86L148 84z"/>
<path style="fill:#a8a1a6; stroke:none;" d="M156 84L156 87L157 87L156 84z"/>
<path style="fill:#675963; stroke:none;" d="M166 84L166 89L167 89L166 84z"/>
<path style="fill:#a8a1a6; stroke:none;" d="M183.667 84.3333L184.333 84.6667L183.667 84.3333z"/>
<path style="fill:#675963; stroke:none;" d="M188 84L188 89L189 89L188 84z"/>
<path style="fill:#a8a1a6; stroke:none;" d="M193.333 84.6667L193.667 85.3333L193.333 84.6667z"/>
<path style="fill:#675963; stroke:none;" d="M196.333 84.6667L196.667 85.3333L196.333 84.6667M204 84L205 85L204 84M210.333 84.6667L210.667 85.3333L210.333 84.6667z"/>
<path style="fill:#fdfcfb; stroke:none;" d="M211.333 84.6667L211.667 85.3333L211.333 84.6667z"/>
<path style="fill:#675963; stroke:none;" d="M217 84L217 85L220 86L217 84z"/>
<path style="fill:#a8a1a6; stroke:none;" d="M228 84L226 89L227 89L228 84M242 84L243 85L242 84M247.333 84.6667L247.667 85.3333L247.333 84.6667z"/>
<path style="fill:#ebd049; stroke:none;" d="M34 85L35 86L34 85z"/>
<path style="fill:#a8a1a6; stroke:none;" d="M40 85L41 86L40 85M45 85L46 86L45 85M60 85L62 87L60 85M62 85L63 86L62 85z"/>
<path style="fill:#675963; stroke:none;" d="M69 85L70 86L69 85z"/>
<path style="fill:#ebd049; stroke:none;" d="M70 85L71 86L70 85M90 85L91 86L90 85z"/>
<path style="fill:#a8a1a6; stroke:none;" d="M102 85L104 88L102 85z"/>
<path style="fill:#675963; stroke:none;" d="M113 85L114 90L115 90L113 85z"/>
<path style="fill:#ebd049; stroke:none;" d="M130.333 85.6667L130.667 86.3333L130.333 85.6667z"/>
<path style="fill:#675963; stroke:none;" d="M141 85L142 86L141 85z"/>
<path style="fill:#a8a1a6; stroke:none;" d="M148 85L149 86L148 85z"/>
<path style="fill:#675963; stroke:none;" d="M151 85L151 88L152 88L151 85z"/>
<path style="fill:#ebd049; stroke:none;" d="M165 85L165 88L166 88L165 85z"/>
<path style="fill:#675963; stroke:none;" d="M170.333 85.6667L170.667 86.3333L170.333 85.6667z"/>
<path style="fill:#a8a1a6; stroke:none;" d="M178.333 85.6667L178.667 86.3333L178.333 85.6667z"/>
<path style="fill:#675963; stroke:none;" d="M192.333 85.6667L192.667 86.3333L192.333 85.6667M201 85L202 86L201 85z"/>
<path style="fill:#a8a1a6; stroke:none;" d="M202 85L202 86L206 87L202 85M217.667 85.3333L218.333 85.6667L217.667 85.3333z"/>
<path style="fill:#675963; stroke:none;" d="M227 85L228 86L227 85z"/>
<path style="fill:#a8a1a6; stroke:none;" d="M230 85L229 88L230 85M236 85L237 86L236 85M241 85L242 86L241 85M34 86L35 87L34 86z"/>
<path style="fill:#675963; stroke:none;" d="M41 86L42 87L41 86z"/>
<path style="fill:#a8a1a6; stroke:none;" d="M42 86L43 87L42 86z"/>
<path style="fill:#ebd049; stroke:none;" d="M43 86L44 87L43 86z"/>
<path style="fill:#a8a1a6; stroke:none;" d="M44 86L45 87L44 86z"/>
<path style="fill:#675963; stroke:none;" d="M50 86L51 87L50 86M53.3333 86.6667L53.6667 87.3333L53.3333 86.6667M60 86L61 87L60 86z"/>
<path style="fill:#a8a1a6; stroke:none;" d="M69 86L70 87L69 86M91 86L92 87L91 86z"/>
<path style="fill:#675963; stroke:none;" d="M97 86L97 90L94 89L94 90L102 95L104 93L104 92L97 86M118 86L119 87L118 86M138 86L139 87L138 86z"/>
<path style="fill:#ebd049; stroke:none;" d="M139 86L140 87L139 86z"/>
<path style="fill:#675963; stroke:none;" d="M140 86L141 87L140 86z"/>
<path style="fill:#a8a1a6; stroke:none;" d="M147 86L148 87L147 86z"/>
<path style="fill:#ebd049; stroke:none;" d="M150 86L151 87L150 86z"/>
<path style="fill:#675963; stroke:none;" d="M173 86L174 87L173 86z"/>
<path style="fill:#ebd049; stroke:none;" d="M193 86L194 87L193 86z"/>
<path style="fill:#a8a1a6; stroke:none;" d="M195 86L195 92L196 92L195 86M201.333 86.6667L201.667 87.3333L201.333 86.6667M210 86L211 87L210 86z"/>
<path style="fill:#ebd049; stroke:none;" d="M211 86L210 88L212 88L211 86z"/>
<path style="fill:#675963; stroke:none;" d="M216.333 86.6667L216.667 87.3333L216.333 86.6667z"/>
<path style="fill:#a8a1a6; stroke:none;" d="M219.333 86.6667L219.667 87.3333L219.333 86.6667z"/>
<path style="fill:#675963; stroke:none;" d="M237 86L238 87L237 86z"/>
<path style="fill:#a8a1a6; stroke:none;" d="M238 86L239 87L238 86z"/>
<path style="fill:#ebd049; stroke:none;" d="M239 86L240 87L239 86z"/>
<path style="fill:#a8a1a6; stroke:none;" d="M240 86L241 87L240 86z"/>
<path style="fill:#675963; stroke:none;" d="M246 86L247 87L246 86M34 87L35 88L34 87z"/>
<path style="fill:#ebd049; stroke:none;" d="M52 87L53 88L52 87z"/>
<path style="fill:#a8a1a6; stroke:none;" d="M68 87L69 88L68 87M92 87L93 88L92 87z"/>
<path style="fill:#675963; stroke:none;" d="M102 87L103 88L102 87z"/>
<path style="fill:#a8a1a6; stroke:none;" d="M119 87L120 88L119 87M146 87L147 88L146 87z"/>
<path style="fill:#675963; stroke:none;" d="M155 87L156 88L155 87z"/>
<path style="fill:#a8a1a6; stroke:none;" d="M170 87L169 90L170 87M173.333 87.6667L173.667 88.3333L173.333 87.6667z"/>
<path style="fill:#675963; stroke:none;" d="M177 87L178 88L177 87z"/>
<path style="fill:#ebd049; stroke:none;" d="M178 87L179 88L178 87z"/>
<path style="fill:#a8a1a6; stroke:none;" d="M192 87L190 92L191 92L192 87z"/>
<path style="fill:#675963; stroke:none;" d="M200.333 87.6667L200.667 88.3333L200.333 87.6667M205 87L205 90L206 90L205 87M220 87C221.62 89.9406 222.686 90.4991 226 90L226 89L220 87M226 87L227 88L226 87M230 87L231 88L230 87z"/>
<path style="fill:#a8a1a6; stroke:none;" d="M246 87L247 88L246 87z"/>
<path style="fill:#675963; stroke:none;" d="M33 88L34 93L35 93L33 88M49 88L48 90L49 88z"/>
<path style="fill:#a8a1a6; stroke:none;" d="M53.3333 88.6667L53.6667 89.3333L53.3333 88.6667M67 88L68 89L67 88M93 88L94 89L93 88z"/>
<path style="fill:#675963; stroke:none;" d="M105.667 88.3333L106.333 88.6667L105.667 88.3333z"/>
<path style="fill:#ebd049; stroke:none;" d="M107 88L108 89L107 88z"/>
<path style="fill:#a8a1a6; stroke:none;" d="M113 88L114 89L113 88z"/>
<path style="fill:#675963; stroke:none;" d="M120 88L121 89L120 88z"/>
<path style="fill:#a8a1a6; stroke:none;" d="M121 88L122 89L121 88M125.667 88.3333L126.333 88.6667L125.667 88.3333z"/>
<path style="fill:#675963; stroke:none;" d="M127 88L124 92L124 93L127 88z"/>
<path style="fill:#a8a1a6; stroke:none;" d="M128.333 88.6667L128.667 89.3333L128.333 88.6667M131 88L132 89L131 88z"/>
<path style="fill:#675963; stroke:none;" d="M145 88L146 89L145 88z"/>
<path style="fill:#a8a1a6; stroke:none;" d="M151 88L154 92L154 91L151 88M155 88L156 89L155 88M165 88L165 92L166 92L165 88z"/>
<path style="fill:#675963; stroke:none;" d="M169 88L170 89L169 88z"/>
<path style="fill:#a8a1a6; stroke:none;" d="M177 88L176 91L177 88z"/>
<path style="fill:#675963; stroke:none;" d="M191 88L192 89L191 88M209 88L210 89L209 88z"/>
<path style="fill:#a8a1a6; stroke:none;" d="M211 88L211 91L212 91L211 88M216.333 88.6667L216.667 89.3333L216.333 88.6667z"/>
<path style="fill:#ebd049; stroke:none;" d="M228 88L229 89L228 88z"/>
<path style="fill:#675963; stroke:none;" d="M229 88L229 92L230 92L229 88z"/>
<path style="fill:#a8a1a6; stroke:none;" d="M245 88L246 89L245 88z"/>
<path style="fill:#ebd049; stroke:none;" d="M49 89L50 90L49 89z"/>
<path style="fill:#675963; stroke:none;" d="M65 89L61 92L61 93L65 89z"/>
<path style="fill:#a8a1a6; stroke:none;" d="M66 89L67 90L66 89z"/>
<path style="fill:#675963; stroke:none;" d="M84 91L89 92C87.1599 90.107 86.0109 88.9534 84 91z"/>
<path style="fill:#a8a1a6; stroke:none;" d="M95 89L96 90L95 89z"/>
<path style="fill:#ebd049; stroke:none;" d="M96 89L97 90L96 89z"/>
<path style="fill:#a8a1a6; stroke:none;" d="M107 89L108 90L107 89z"/>
<path style="fill:#675963; stroke:none;" d="M122 89L122 90L126 90L122 89M132 89L133 90L132 89z"/>
<path style="fill:#a8a1a6; stroke:none;" d="M144 89L145 90L144 89z"/>
<path style="fill:#675963; stroke:none;" d="M154 89L155 90L154 89z"/>
<path style="fill:#ebd049; stroke:none;" d="M173 89L174 90L173 89z"/>
<path style="fill:#675963; stroke:none;" d="M176 89L177 90L176 89z"/>
<path style="fill:#ebd049; stroke:none;" d="M187 89L188 90L187 89z"/>
<path style="fill:#a8a1a6; stroke:none;" d="M200.333 89.6667L200.667 90.3333L200.333 89.6667M209 89L210 90L209 89M220 89L221 90L220 89z"/>
<path style="fill:#ebd049; stroke:none;" d="M226 89L227 90L226 89z"/>
<path style="fill:#a8a1a6; stroke:none;" d="M228 89L228 92L229 92L228 89z"/>
<path style="fill:#675963; stroke:none;" d="M244 89L245 90L244 89M46 90L43 91L43 92L47 91L46 90z"/>
<path style="fill:#a8a1a6; stroke:none;" d="M47 90L48 91L47 90z"/>
<path style="fill:#ebd049; stroke:none;" d="M48 90L49 91L48 90z"/>
<path style="fill:#a8a1a6; stroke:none;" d="M54 90L55 91L54 90M65 90L66 91L65 90M85.6667 90.3333L86.3333 90.6667L85.6667 90.3333M108 90L109 91L108 90M114 90L115 91L114 90M132 90L133 91L132 90z"/>
<path style="fill:#675963; stroke:none;" d="M142 90L141 92L142 90z"/>
<path style="fill:#a8a1a6; stroke:none;" d="M143 90L144 91L143 90z"/>
<path style="fill:#675963; stroke:none;" d="M152 90L153 91L152 90z"/>
<path style="fill:#a8a1a6; stroke:none;" d="M154 90L155 91L154 90z"/>
<path style="fill:#675963; stroke:none;" d="M166 90L168 93L166 90M168 90L169 91L168 90z"/>
<path style="fill:#ebd049; stroke:none;" d="M169 90L170 91L169 90z"/>
<path style="fill:#675963; stroke:none;" d="M174 90L175 91L174 90M188 90L190 93L188 90M190 90L191 91L190 90M199 90L197 92L197 93L199 90z"/>
<path style="fill:#a8a1a6; stroke:none;" d="M205 90L209 92L209 91L205 90z"/>
<path style="fill:#675963; stroke:none;" d="M208 90L209 91L208 90M212 90L213 93L216 90L212 90z"/>
<path style="fill:#a8a1a6; stroke:none;" d="M221 90L222 91L221 90M225 90L226 91L225 90z"/>
<path style="fill:#675963; stroke:none;" d="M242 90L243 91L242 90z"/>
<path style="fill:#a8a1a6; stroke:none;" d="M243 90L244 91L243 90M46 91L47 92L46 91z"/>
<path style="fill:#675963; stroke:none;" d="M55 91L56 92L55 91z"/>
<path style="fill:#a8a1a6; stroke:none;" d="M64 91L65 92L64 91M84 91L83 94L84 91M87 91L88 92L87 91z"/>
<path style="fill:#675963; stroke:none;" d="M108.333 91.6667L108.667 92.3333L108.333 91.6667z"/>
<path style="fill:#ebd049; stroke:none;" d="M109 91L110 92L109 91z"/>
<path style="fill:#675963; stroke:none;" d="M115 91L118 93L118 92L115 91z"/>
<path style="fill:#a8a1a6; stroke:none;" d="M127 91L128 92L127 91M133 91L135 93L133 91z"/>
<path style="fill:#675963; stroke:none;" d="M134 91L135 92L134 91z"/>
<path style="fill:#a8a1a6; stroke:none;" d="M142 91L143 92L142 91M168 91L169 92L168 91M174.667 91.3333L175.333 91.6667L174.667 91.3333z"/>
<path style="fill:#675963; stroke:none;" d="M206.667 91.3333L207.333 91.6667L206.667 91.3333z"/>
<path style="fill:#a8a1a6; stroke:none;" d="M215 91L216 92L215 91M222 91L222 92L225 92L222 91z"/>
<path style="fill:#675963; stroke:none;" d="M239.667 91.3333L240.333 91.6667L239.667 91.3333z"/>
<path style="fill:#a8a1a6; stroke:none;" d="M241.667 91.3333L242.333 91.6667L241.667 91.3333M33 92L34 93L33 92z"/>
<path style="fill:#675963; stroke:none;" d="M37 92L37 93L40 93L37 92z"/>
<path style="fill:#a8a1a6; stroke:none;" d="M40 92L40 93L44 93L40 92z"/>
<path style="fill:#ebd049; stroke:none;" d="M44 92L45 93L44 92z"/>
<path style="fill:#a8a1a6; stroke:none;" d="M56 92L57 93L56 92z"/>
<path style="fill:#675963; stroke:none;" d="M57 92L58 93L57 92z"/>
<path style="fill:#a8a1a6; stroke:none;" d="M62 92L63 93L62 92z"/>
<path style="fill:#675963; stroke:none;" d="M81 92L81 94L83 94L81 92M83 92L84 93L83 92z"/>
<path style="fill:#a8a1a6; stroke:none;" d="M89 92L91 94L89 92z"/>
<path style="fill:#675963; stroke:none;" d="M90 92L91 93L90 92z"/>
<path style="fill:#ebd049; stroke:none;" d="M115 92L116 93L115 92M126 92L127 93L126 92z"/>
<path style="fill:#675963; stroke:none;" d="M135 92L136 93L135 92M139 92L140 93L139 92z"/>
<path style="fill:#a8a1a6; stroke:none;" d="M140 92L141 93L140 92z"/>
<path style="fill:#ebd049; stroke:none;" d="M165 92L166 93L165 92z"/>
<path style="fill:#a8a1a6; stroke:none;" d="M196 92L197 93L196 92M199 92L200 93L199 92M212 92L213 93L212 92M214 92L215 93L214 92M229 92L230 93L229 92z"/>
<path style="fill:#675963; stroke:none;" d="M233 92L233 93L236 93L233 92z"/>
<path style="fill:#a8a1a6; stroke:none;" d="M236 92L236 93L240 93L236 92M34 93L34 94L38 94L34 93z"/>
<path style="fill:#ebd049; stroke:none;" d="M38 93L39 94L38 93M57 93L58 94L57 93z"/>
<path style="fill:#a8a1a6; stroke:none;" d="M58 93L58 94L61 94L58 93z"/>
<path style="fill:#ebd049; stroke:none;" d="M80 93L81 94L80 93z"/>
<path style="fill:#675963; stroke:none;" d="M91 93L92 94L91 93z"/>
<path style="fill:#ebd049; stroke:none;" d="M101 93L102 94L101 93z"/>
<path style="fill:#a8a1a6; stroke:none;" d="M103 93L103 94L106 94L103 93z"/>
<path style="fill:#675963; stroke:none;" d="M106 93L107 94L106 93z"/>
<path style="fill:#a8a1a6; stroke:none;" d="M107.667 93.3333L108.333 93.6667L107.667 93.3333M117 93L117 94L124 94L117 93M136 93L136 94L139 94L136 93M166 93L167 94L166 93M188 93L189 94L188 93z"/>
<path style="fill:#ebd049; stroke:none;" d="M189 93L190 94L189 93M197 93L198 94L197 93z"/>
<path style="fill:#a8a1a6; stroke:none;" d="M230 93L230 94L234 94L230 93M92 94L93 95L92 94z"/>
<path style="fill:#675963; stroke:none;" d="M93 94L94 95L93 94z"/>
<path style="fill:#a8a1a6; stroke:none;" d="M94 95L95 96L94 95z"/>
<path style="fill:#675963; stroke:none;" d="M95 95L96 96L95 95M102 95L103 96L102 95z"/>
<path style="fill:#ebd049; stroke:none;" d="M95 96L96 97L95 96z"/>
<path style="fill:#a8a1a6; stroke:none;" d="M96 96L96 97L100 99L100 98L96 96z"/>
<path style="fill:#675963; stroke:none;" d="M97 96L98 97L97 96z"/>
<path style="fill:#a8a1a6; stroke:none;" d="M103.333 96.6667L103.667 97.3333L103.333 96.6667z"/>
<path style="fill:#675963; stroke:none;" d="M99 97L100 98L99 97M100 98L100 99L103 99L100 98z"/>
<path style="fill:#ebd049; stroke:none;" d="M58 109L58 111L221 111L221 109L58 109M23 118L24 119L23 118z"/>
<path style="fill:#a8a1a6; stroke:none;" d="M260 119L260 122L261 122L260 119M18.3333 120.667L18.6667 121.333L18.3333 120.667z"/>
<path style="fill:#ebd049; stroke:none;" d="M254 121L255 122L254 121z"/>
<path style="fill:#a8a1a6; stroke:none;" d="M24 122L25 123L24 122M19 123L20 124L19 123M25 123L26 124L25 123M253 123L254 124L253 123M259 123L260 124L259 123z"/>
<path style="fill:#ebd049; stroke:none;" d="M19 124L20 125L19 124M26 124L27 125L26 124z"/>
<path style="fill:#a8a1a6; stroke:none;" d="M252 124L253 125L252 124M20 125L21 126L20 125M27 125L28 126L27 125M251 125L252 126L251 125M258 125L259 126L258 125M21 126L24 129L21 126M28 126L28 127L116 129L116 128C88.1564 121.371 56.4785 129.599 28 126z"/>
<path style="fill:#ebd049; stroke:none;" d="M31 126L32 127L31 126M247 126L248 127L247 126z"/>
<path style="fill:#a8a1a6; stroke:none;" d="M248 126L248 127L251 127L248 126M257 126L258 127L257 126z"/>
<path style="fill:#ebd049; stroke:none;" d="M21 127L22 128L21 127M114 127L115 128L114 127M164 127L165 128L164 127z"/>
<path style="fill:#a8a1a6; stroke:none;" d="M165 127L165 128L248 128L222 127L165 127M256 127L255 129L256 127z"/>
<path style="fill:#ebd049; stroke:none;" d="M22 128L23 129L22 128M116 128L117 129L116 128M162 128L163 129L162 128z"/>
<path style="fill:#a8a1a6; stroke:none;" d="M163.667 128.333L164.333 128.667L163.667 128.333z"/>
<path style="fill:#ebd049; stroke:none;" d="M256 128L257 129L256 128z"/>
<path style="fill:#a8a1a6; stroke:none;" d="M24 129L25 130L24 129M117 129L118 130L117 129M161 129L162 130L161 129M254 129L255 130L254 129z"/>
<path style="fill:#ebd049; stroke:none;" d="M25 130L26 131L25 130z"/>
<path style="fill:#a8a1a6; stroke:none;" d="M26 130L27 131L26 130M118 130L119 131L118 130M160 130L161 131L160 130M252 130L253 131L252 130z"/>
<path style="fill:#ebd049; stroke:none;" d="M253 130L254 131L253 130z"/>
<path style="fill:#a8a1a6; stroke:none;" d="M28.6667 131.333L29.3333 131.667L28.6667 131.333M119 131L120 132L119 131M159 131L160 132L159 131M249.667 131.333L250.333 131.667L249.667 131.333M111.667 132.333L112.333 132.667L111.667 132.333M120 132L121 133L120 132M158 132L159 133L158 132M166.667 132.333L167.333 132.667L166.667 132.333z"/>
<path style="fill:#ebd049; stroke:none;" d="M113 133L114 134L113 133z"/>
<path style="fill:#a8a1a6; stroke:none;" d="M114 133L115 134L114 133M121 133L122 134L121 133M157 133L158 134L157 133M164 133L165 134L164 133M115 134L116 135L115 134M122 134L123 135L122 134M156 134L157 135L156 134M163 134L164 135L163 134M116 135L117 136L116 135M123 135L124 136L123 135M155 135L156 136L155 135M162 135L163 136L162 135M117 136L118 137L117 136M124 136L125 137L124 136M154 136L155 137L154 136M161 136L162 137L161 136M118 137L119 138L118 137M125 137L126 138L125 137M153 137L154 138L153 137M160 137L161 138L160 137M119 138L120 139L119 138M126 138L127 139L126 138M152 138L153 139L152 138M159 138L160 139L159 138M120 139L121 140L120 139M127 139L128 140L127 139M151 139L152 140L151 139M158 139L159 140L158 139M121 140L122 141L121 140M128 140L129 141L128 140M150 140L151 141L150 140M155 143L158 140L155 143M122 141L123 142L122 141M129 141L130 142L129 141z"/>
<path style="fill:#ebd049; stroke:none;" d="M148 141L149 142L148 141z"/>
<path style="fill:#a8a1a6; stroke:none;" d="M149 141L150 142L149 141M123 142L124 143L123 142M130 142L131 143L130 142M148 142L149 143L148 142M124 143L125 144L124 143M131 143L132 144L131 143M147 143L148 144L147 143M154 143L155 144L154 143M125 144L126 145L125 144M132 144L133 145L132 144M146 144L147 145L146 144M153 144L154 145L153 144M126 145L127 146L126 145M133 145L134 146L133 145M145 145L146 146L145 145M152 145L153 146L152 145M127 146L128 147L127 146M134 146L135 147L134 146M144 146L145 147L144 146M151 146L152 147L151 146M128 147L129 148L128 147M135 147L138 149L138 148L135 147z"/>
<path style="fill:#ebd049; stroke:none;" d="M136 147L137 148L136 147M142 147L143 148L142 147z"/>
<path style="fill:#a8a1a6; stroke:none;" d="M143 147L144 148L143 147M147 151L151 147L147 151M129 148L130 149L129 148M141.667 148.333L142.333 148.667L141.667 148.333M130 149L131 150L130 149M138 149L138 150L141 150L138 149M131 150L132 151L131 150M132 151L133 152L132 151M144 153L147 152L144 153M133.667 152.333L134.333 152.667L133.667 152.333z"/>
<path style="fill:#ebd049; stroke:none;" d="M145 152L146 153L145 152z"/>
<path style="fill:#a8a1a6; stroke:none;" d="M135.667 153.333L136.333 153.667L135.667 153.333M142.667 153.333L143.333 153.667L142.667 153.333z"/>
<path style="fill:#ebd049; stroke:none;" d="M138 154L138 155L141 155L138 154z"/>
</svg>
